<mxfile host="Electron" modified="2024-04-22T01:21:32.089Z" agent="Mozilla/5.0 (Macintosh; Intel Mac OS X 10_15_7) AppleWebKit/537.36 (KHTML, like Gecko) draw.io/22.1.2 Chrome/114.0.5735.289 Electron/25.9.4 Safari/537.36" etag="IUyKgHOrK56Gx6qCJC5p" version="22.1.2" type="device">
  <diagram name="Page-1" id="PAVfkgBMzzeHHB0DsLqo">
    <mxGraphModel dx="1026" dy="659" grid="1" gridSize="10" guides="1" tooltips="1" connect="1" arrows="1" fold="1" page="1" pageScale="1" pageWidth="850" pageHeight="1100" math="0" shadow="0">
      <root>
        <mxCell id="0" />
        <mxCell id="1" parent="0" />
        <mxCell id="8eTJ-dakigA13zWRXXki-7" value="" style="endArrow=classic;html=1;rounded=0;strokeWidth=3;strokeColor=#009900;" parent="1" source="8eTJ-dakigA13zWRXXki-9" edge="1">
          <mxGeometry width="50" height="50" relative="1" as="geometry">
            <mxPoint x="185" y="220" as="sourcePoint" />
            <mxPoint x="620" y="220" as="targetPoint" />
          </mxGeometry>
        </mxCell>
        <mxCell id="8eTJ-dakigA13zWRXXki-8" value="" style="endArrow=classic;html=1;rounded=0;strokeWidth=3;strokeColor=#3399FF;" parent="1" source="8eTJ-dakigA13zWRXXki-10" edge="1">
          <mxGeometry width="50" height="50" relative="1" as="geometry">
            <mxPoint x="340" y="310" as="sourcePoint" />
            <mxPoint x="450" y="310" as="targetPoint" />
          </mxGeometry>
        </mxCell>
        <mxCell id="8eTJ-dakigA13zWRXXki-15" value="" style="endArrow=classic;html=1;rounded=0;strokeWidth=3;strokeColor=#009900;" parent="1" target="8eTJ-dakigA13zWRXXki-11" edge="1">
          <mxGeometry width="50" height="50" relative="1" as="geometry">
            <mxPoint x="185" y="220" as="sourcePoint" />
            <mxPoint x="665" y="220" as="targetPoint" />
          </mxGeometry>
        </mxCell>
        <mxCell id="8eTJ-dakigA13zWRXXki-11" value="" style="ellipse;whiteSpace=wrap;html=1;aspect=fixed;fillColor=#d5e8d4;strokeColor=#82b366;" parent="1" vertex="1">
          <mxGeometry x="280" y="210" width="20" height="20" as="geometry" />
        </mxCell>
        <mxCell id="8eTJ-dakigA13zWRXXki-16" value="main thread" style="text;html=1;align=center;verticalAlign=middle;resizable=0;points=[];autosize=1;strokeColor=none;fillColor=none;fontSize=12;fontStyle=0" parent="1" vertex="1">
          <mxGeometry x="93" y="205" width="90" height="30" as="geometry" />
        </mxCell>
        <mxCell id="8eTJ-dakigA13zWRXXki-17" value="new thread" style="text;html=1;align=center;verticalAlign=middle;resizable=0;points=[];autosize=1;strokeColor=none;fillColor=none;fontSize=12;fontStyle=0" parent="1" vertex="1">
          <mxGeometry x="260" y="295" width="80" height="30" as="geometry" />
        </mxCell>
        <mxCell id="8eTJ-dakigA13zWRXXki-18" value="work1" style="text;html=1;align=center;verticalAlign=middle;resizable=0;points=[];autosize=1;strokeColor=none;fillColor=none;fontSize=10;" parent="1" vertex="1">
          <mxGeometry x="265" y="175" width="50" height="30" as="geometry" />
        </mxCell>
        <mxCell id="8eTJ-dakigA13zWRXXki-22" value="" style="endArrow=classic;html=1;rounded=0;" parent="1" edge="1">
          <mxGeometry width="50" height="50" relative="1" as="geometry">
            <mxPoint x="310" y="240" as="sourcePoint" />
            <mxPoint x="350" y="300" as="targetPoint" />
          </mxGeometry>
        </mxCell>
        <mxCell id="8eTJ-dakigA13zWRXXki-23" value="" style="endArrow=classic;html=1;rounded=0;strokeWidth=3;strokeColor=#3399FF;" parent="1" target="8eTJ-dakigA13zWRXXki-10" edge="1">
          <mxGeometry width="50" height="50" relative="1" as="geometry">
            <mxPoint x="340" y="310" as="sourcePoint" />
            <mxPoint x="520" y="310" as="targetPoint" />
          </mxGeometry>
        </mxCell>
        <mxCell id="8eTJ-dakigA13zWRXXki-10" value="" style="ellipse;whiteSpace=wrap;html=1;aspect=fixed;fillColor=#d5e8d4;strokeColor=#82b366;" parent="1" vertex="1">
          <mxGeometry x="380" y="300" width="20" height="20" as="geometry" />
        </mxCell>
        <mxCell id="8eTJ-dakigA13zWRXXki-24" value="start new thread" style="text;html=1;align=center;verticalAlign=middle;resizable=0;points=[];autosize=1;strokeColor=none;fillColor=none;fontSize=10;" parent="1" vertex="1">
          <mxGeometry x="230" y="250" width="100" height="30" as="geometry" />
        </mxCell>
        <mxCell id="8eTJ-dakigA13zWRXXki-25" value="work2" style="text;html=1;align=center;verticalAlign=middle;resizable=0;points=[];autosize=1;strokeColor=none;fillColor=none;fontSize=10;" parent="1" vertex="1">
          <mxGeometry x="365" y="325" width="50" height="30" as="geometry" />
        </mxCell>
        <mxCell id="8eTJ-dakigA13zWRXXki-26" value="" style="ellipse;whiteSpace=wrap;html=1;aspect=fixed;fillColor=#d5e8d4;strokeColor=#82b366;opacity=20;" parent="1" vertex="1">
          <mxGeometry x="449" y="258" width="15" height="15" as="geometry" />
        </mxCell>
        <mxCell id="8eTJ-dakigA13zWRXXki-28" value="" style="endArrow=classic;html=1;rounded=0;strokeWidth=3;strokeColor=#009900;" parent="1" source="8eTJ-dakigA13zWRXXki-11" target="8eTJ-dakigA13zWRXXki-27" edge="1">
          <mxGeometry width="50" height="50" relative="1" as="geometry">
            <mxPoint x="300" y="220" as="sourcePoint" />
            <mxPoint x="665" y="220" as="targetPoint" />
          </mxGeometry>
        </mxCell>
        <mxCell id="8eTJ-dakigA13zWRXXki-27" value="" style="ellipse;whiteSpace=wrap;html=1;aspect=fixed;fillColor=#dae8fc;strokeColor=#6c8ebf;" parent="1" vertex="1">
          <mxGeometry x="400" y="210" width="20" height="20" as="geometry" />
        </mxCell>
        <mxCell id="8eTJ-dakigA13zWRXXki-29" value="otherwork1" style="text;html=1;align=center;verticalAlign=middle;resizable=0;points=[];autosize=1;strokeColor=none;fillColor=none;fontSize=10;" parent="1" vertex="1">
          <mxGeometry x="375" y="175" width="70" height="30" as="geometry" />
        </mxCell>
        <mxCell id="8eTJ-dakigA13zWRXXki-31" value="" style="endArrow=classic;html=1;rounded=0;strokeWidth=3;strokeColor=#009900;" parent="1" source="8eTJ-dakigA13zWRXXki-27" target="8eTJ-dakigA13zWRXXki-30" edge="1">
          <mxGeometry width="50" height="50" relative="1" as="geometry">
            <mxPoint x="420" y="220" as="sourcePoint" />
            <mxPoint x="665" y="220" as="targetPoint" />
          </mxGeometry>
        </mxCell>
        <mxCell id="8eTJ-dakigA13zWRXXki-30" value="" style="ellipse;whiteSpace=wrap;html=1;aspect=fixed;fillColor=#e1d5e7;strokeColor=#9673a6;" parent="1" vertex="1">
          <mxGeometry x="470" y="210" width="20" height="20" as="geometry" />
        </mxCell>
        <mxCell id="8eTJ-dakigA13zWRXXki-32" value="otherwork2" style="text;html=1;align=center;verticalAlign=middle;resizable=0;points=[];autosize=1;strokeColor=none;fillColor=none;fontSize=10;" parent="1" vertex="1">
          <mxGeometry x="450" y="175" width="70" height="30" as="geometry" />
        </mxCell>
        <mxCell id="8eTJ-dakigA13zWRXXki-33" value="" style="endArrow=classic;html=1;rounded=0;dashed=1;" parent="1" edge="1">
          <mxGeometry width="50" height="50" relative="1" as="geometry">
            <mxPoint x="420" y="300" as="sourcePoint" />
            <mxPoint x="530" y="240" as="targetPoint" />
          </mxGeometry>
        </mxCell>
        <mxCell id="8eTJ-dakigA13zWRXXki-34" value="add work3" style="text;html=1;align=center;verticalAlign=middle;resizable=0;points=[];autosize=1;strokeColor=none;fillColor=none;fontSize=10;" parent="1" vertex="1">
          <mxGeometry x="386" y="251" width="70" height="30" as="geometry" />
        </mxCell>
        <mxCell id="8eTJ-dakigA13zWRXXki-39" value="" style="endArrow=classic;html=1;rounded=0;strokeWidth=3;strokeColor=#009900;" parent="1" source="8eTJ-dakigA13zWRXXki-30" target="8eTJ-dakigA13zWRXXki-9" edge="1">
          <mxGeometry width="50" height="50" relative="1" as="geometry">
            <mxPoint x="490" y="220" as="sourcePoint" />
            <mxPoint x="620" y="220" as="targetPoint" />
          </mxGeometry>
        </mxCell>
        <mxCell id="8eTJ-dakigA13zWRXXki-9" value="" style="ellipse;whiteSpace=wrap;html=1;aspect=fixed;fillColor=#d5e8d4;strokeColor=#82b366;opacity=20;" parent="1" vertex="1">
          <mxGeometry x="540" y="210" width="20" height="20" as="geometry" />
        </mxCell>
        <mxCell id="8eTJ-dakigA13zWRXXki-40" value="work3" style="text;html=1;align=center;verticalAlign=middle;resizable=0;points=[];autosize=1;strokeColor=none;fillColor=none;fontSize=10;" parent="1" vertex="1">
          <mxGeometry x="525" y="175" width="50" height="30" as="geometry" />
        </mxCell>
      </root>
    </mxGraphModel>
  </diagram>
</mxfile>
